<svg width="60" height="60" viewBox="0 0 60 60" fill="none" xmlns="http://www.w3.org/2000/svg">
<path d="M60 24.1649C60 18.3703 51.725 17.7632 46.2447 17.2144C44.7423 12.8791 45.0614 7.24129 42.6735 3.99365C39.9374 0.283154 35.4116 1.72992 30.729 1.72992C27.1925 1.72992 22.5418 -1.38619 19.8854 0.746018C17.6145 2.56965 17.1625 6.33074 15.8595 10.7469C14.8597 14.1716 13.594 17.2118 13.1446 19.7614C13.1268 19.8694 13.0947 19.9748 13.0489 20.075C7.88234 23.1456 3.9682 22.9888 0.171054 25.5915C-0.919162 26.3376 3.4417 26.0341 6.45974 26.4539C9.11881 26.8258 10.2941 28.3914 12.7537 29.2362C13.1765 29.3829 13.5515 29.5347 13.953 29.6965C14.6508 31.3012 14.9466 33.0382 14.8172 34.7703C14.5965 38.4555 17.5241 40.9924 18.7287 44.4045C19.8295 47.5307 19.3961 50.5381 21.1218 51.6687C23.1605 52.4318 25.4291 52.4227 27.461 51.6434C27.8998 53.7427 29.2931 55.1591 29.6867 57.3571C30.519 62.0161 32.2713 59.4893 37.7596 57.5417C42.865 55.7307 42.0806 54.3598 45.0534 49.9007C46.8137 47.255 50.1455 48.3831 47.8694 46.6328C46.6515 45.697 46.5079 40.9823 46.6036 39.0221C46.6706 39.1053 46.7587 39.171 46.8596 39.213C46.9605 39.255 47.071 39.272 47.1807 39.2624C49.4329 38.8501 46.9147 37.1226 47.4093 35.3799C47.8906 33.6928 48.6033 32.5976 47.8135 32.1828C55.2137 30.3364 60 27.4404 60 24.1649Z" fill="white"/>
</svg>
