<svg width="160" height="170" xmlns="http://www.w3.org/2000/svg" viewBox="0 0 1000 1000">
<g><path fill="#ffffff" d="M188.7,856.4c-3.5,0-7-0.1-10.6-0.4C68.8,847-4,683.7,12.3,484.2C28.9,281.3,123.9,134.5,233.9,144c49.1,4,83.1,43.5,107.3,77.5c10.4,14.6,7,34.9-7.6,45.3c-14.6,10.4-34.9,6.9-45.3-7.7c-23.8-33.4-42.2-49-59.7-50.5C168.8,204.4,91.1,317.9,77,489.5C63,661,121.9,786.2,183.5,791.2c53.7,5,106.6-62.1,134.1-169.3c3.7-14.3,16.6-24.4,31.4-24.4h304.3c14.6,0,27.5,9.8,31.3,23.9c29.6,108.3,82.4,174.9,137.3,169.3c29.8-3,58.1-34.1,77.6-85.3c22.5-59.5,30.5-137,22.2-218.4c-8.2-81.4-31.5-155.8-65.6-209.6c-29.4-46.4-62.9-71.6-93.1-68.2c-18.6,1.9-40.2,19.5-60.7,49.5c-6,8.9-16.1,14.2-26.8,14.2H435.4c-17.9,0-32.5-14.5-32.5-32.5s14.5-32.5,32.5-32.5h223.7c29.7-38.5,62.5-59.7,97.5-63.3c108.9-11.1,209.6,136.6,229.8,335.9c9.2,91.2,0,179.3-26.1,248c-28.9,76.2-75.7,121.2-131.7,126.9c-83,8.5-158.4-64.9-199.5-192.9H373.7C336.6,783.8,267.6,856.4,188.7,856.4z"/><path fill="#ffffff" d="M305.6,435.2h-32.5v-32.5c0-17.9-14.5-32.5-32.5-32.5c-17.9,0-32.5,14.5-32.5,32.5v32.5h-32.5c-17.9,0-32.5,14.5-32.5,32.5c0,17.9,14.5,32.5,32.5,32.5h32.5v32.5c0,18,14.5,32.5,32.5,32.5c17.9,0,32.5-14.5,32.5-32.5v-32.5h32.5c17.9,0,32.5-14.5,32.5-32.5C338,449.7,323.5,435.2,305.6,435.2z"/><path fill="#ffffff" d="M727.7,370.2c0,35.9,29.1,64.9,64.9,64.9s64.9-29.1,64.9-64.9c0-35.9-29.1-64.9-64.9-64.9S727.7,334.4,727.7,370.2z"/><path fill="#ffffff" d="M597.8,500.1c0,35.9,29.1,64.9,64.9,64.9c35.9,0,64.9-29.1,64.9-64.9c0-35.9-29.1-64.9-64.9-64.9C626.9,435.2,597.8,464.3,597.8,500.1z"/></g>
</svg>
