<svg width="72" height="78" viewBox="0 0 72 78" fill="none" xmlns="http://www.w3.org/2000/svg">
<path d="M11.6096 23.1426C11.6844 29.2779 12.4191 33.524 13.6904 36.6442C15.0416 39.9604 16.9859 41.9728 19.3098 43.6208L20.08 44.167L20.0989 43.2229C20.1323 41.5561 20.6885 39.7695 21.348 37.9294C21.4692 37.5915 21.594 37.2512 21.7193 36.9099C22.261 35.4336 22.8098 33.938 23.0928 32.5319C25.9458 23.4958 26.6744 21.7691 28.6817 17.012C29.1382 15.9302 29.6609 14.6915 30.2897 13.1746C31.9071 9.27605 32.4157 5.12242 31.5821 0.63927C37.2144 1.93605 42.7072 6.85198 47.1916 14.3179C51.8573 22.0856 55.3777 32.5306 56.7924 44.2451L56.9403 45.4694L57.6868 44.4878C60.5631 40.7057 62.3692 36.3652 62.8877 31.393C67.6672 36.6783 70.0866 42.8771 71.0214 49.6814L71.0219 49.6851C72.0185 56.5554 71.4595 62.1484 69.3232 66.4437C67.3309 70.4493 63.9401 73.3801 59.0283 75.1682C59.9869 72.6427 60.3565 70.3265 60.212 67.99C60.0486 65.3486 59.23 62.7147 57.9165 59.7603L57.9164 59.7599C56.7899 57.2311 55.33 55.0099 53.4609 53.1572L52.7516 52.4542L52.6137 53.4433C52.2187 56.2754 51.7165 58.7398 51.0625 60.6851C50.5932 62.081 50.0579 63.1715 49.4569 63.9392C49.3747 62.3781 49.1901 60.841 48.8867 59.3283C48.2717 56.2246 47.4625 54.5662 46.5633 53.1137C46.3513 52.7712 46.1382 52.4456 45.9244 52.1188C45.2371 51.0683 44.5415 50.0051 43.8445 48.3283C42.9688 46.214 42.7272 43.9578 43.2583 41.4954L43.4148 40.77L42.6837 40.8975C39.1329 41.5164 35.8078 44.4969 33.1936 48.8495C30.7417 52.9318 28.8673 58.295 27.9861 64.2928C26.8118 62.4302 26.1108 60.3287 25.9559 57.946L25.8828 56.8206L25.0979 57.6305C22.0662 60.7591 20.5626 64.4894 19.9983 68.5418C19.4974 72.0032 19.6795 74.9701 20.6438 77.386C12.7559 76.1976 7.40379 71.5817 3.95517 64.2076L3.95509 64.2074C1.37444 58.6946 0.328194 53.9158 0.522739 49.154C0.717571 44.3852 2.15822 39.5948 4.61223 34.0585C6.47324 29.8873 8.59083 25.8206 11.6096 23.1426Z" fill="#B51E3D" stroke="#B51E3D"/>
</svg>
