<svg width="47" height="46" viewBox="0 0 47 46" fill="none" xmlns="http://www.w3.org/2000/svg">
<path d="M21.4118 29.913H20.9118V30.413V33.3274V33.8274H21.4118H24.2001H24.7001V33.3274V30.413V29.913H24.2001H21.4118ZM26.4536 23.5702L26.4537 23.5701C27.6877 22.3735 28.5429 21.4345 28.9822 20.768C29.4578 20.0463 29.6742 19.1383 29.6742 18.0829C29.6742 16.3219 29.0721 14.8445 27.8581 13.6919C26.6398 12.5353 25.0336 11.9783 23.0932 11.9783C20.9928 11.9783 19.2847 12.6313 18.0328 13.9807C18.0328 13.9807 18.0328 13.9807 18.0328 13.9807L18.0327 13.9808L18.0327 13.9808L18.0326 13.9809L18.0324 13.9811L18.0323 13.9812L18.0321 13.9814L18.032 13.9816L18.0317 13.9818L18.0315 13.9821L18.0312 13.9824L18.0309 13.9827L18.0306 13.983L18.0303 13.9834L18.0299 13.9838L18.0295 13.9842L18.0291 13.9846L18.0287 13.9851L18.0282 13.9856L18.0278 13.9861L18.0273 13.9867L18.0267 13.9872L18.0262 13.9878L18.0261 13.9879L18.0256 13.9884L18.025 13.9891L18.0244 13.9897L18.0238 13.9904L18.0231 13.9911L18.0224 13.9919L18.0217 13.9926L18.021 13.9934L18.0203 13.9942L18.0195 13.995L18.0195 13.995L18.0187 13.9959L18.0179 13.9968L18.0171 13.9977L18.0162 13.9986L18.0153 13.9995L18.0144 14.0005L18.0135 14.0014L18.013 14.0021L18.0126 14.0025L18.0117 14.0035L18.0107 14.0045L18.0097 14.0056L18.0087 14.0067L18.0077 14.0078L18.0066 14.0089L18.0065 14.0091L18.0055 14.0101L18.0045 14.0112L18.0034 14.0124L18.0022 14.0136L18.0011 14.0149L18 14.016L17.9999 14.0161L17.9988 14.0174L17.9976 14.0187L17.9963 14.02L17.9951 14.0213L17.9939 14.0226L17.9936 14.0229L17.9926 14.024L17.9913 14.0254L17.99 14.0268L17.9887 14.0282L17.9874 14.0296L17.9873 14.0297L17.986 14.0311L17.9847 14.0326L17.9833 14.0341L17.9819 14.0356L17.981 14.0365L17.9805 14.0371L17.979 14.0386L17.9776 14.0402L17.9761 14.0418L17.9748 14.0432L17.9747 14.0433L17.9732 14.0449L17.9717 14.0466L17.9702 14.0482L17.9686 14.0499L17.9686 14.0499L17.9671 14.0515L17.9655 14.0532L17.9639 14.0549L17.9624 14.0565L17.9623 14.0566L17.9607 14.0584L17.9591 14.0601L17.9575 14.0619L17.9564 14.0631L17.9558 14.0636L17.9542 14.0654L17.9525 14.0672L17.9508 14.069L17.9503 14.0696L17.9491 14.0709L17.9474 14.0727L17.9457 14.0746L17.9443 14.076L17.944 14.0764L17.9422 14.0783L17.9405 14.0802L17.9387 14.0821L17.9384 14.0824L17.9369 14.084L17.9351 14.086L17.9333 14.0879L17.9325 14.0888L17.9315 14.0899L17.9297 14.0919L17.9278 14.0938L17.9267 14.0951L17.926 14.0958L17.9241 14.0978L17.9222 14.0998L17.9209 14.1013L17.9204 14.1019L17.9185 14.1039L17.9166 14.106L17.9151 14.1075L17.9147 14.108L17.9127 14.1101L17.9108 14.1122L17.9095 14.1136L17.9089 14.1143L17.9069 14.1164L17.905 14.1185L17.9038 14.1197L17.903 14.1206L17.901 14.1227L17.899 14.1249L17.8982 14.1257L17.897 14.127L17.895 14.1292L17.893 14.1313L17.8927 14.1317L17.891 14.1335L17.889 14.1357L17.8872 14.1376L17.887 14.1379L17.8849 14.1401L17.8829 14.1423L17.8817 14.1435L17.8808 14.1445L17.8787 14.1467L17.8767 14.149L17.8763 14.1493L17.8746 14.1512L17.8725 14.1535L17.871 14.1551L17.8704 14.1557L17.8683 14.158L17.8662 14.1602L17.8657 14.1608L17.8641 14.1625L17.862 14.1648L17.8604 14.1665L17.8599 14.1671L17.8578 14.1694L17.8556 14.1717L17.8552 14.1721L17.8535 14.174L17.8513 14.1763L17.8501 14.1776L17.8492 14.1786L17.847 14.1809L17.845 14.1831L17.8449 14.1832L17.8427 14.1856L17.8406 14.1879L17.8399 14.1886L17.8384 14.1902L17.8362 14.1926L17.8349 14.194L17.834 14.1949L17.8319 14.1973L17.8299 14.1994L17.8297 14.1996L17.8275 14.202L17.8253 14.2043L17.825 14.2047L17.8231 14.2067L17.8209 14.2091L17.8201 14.2099L17.8187 14.2114L17.8165 14.2138L17.8153 14.2151L17.8143 14.2162L17.8121 14.2186L17.8105 14.2203L17.8099 14.221L17.8077 14.2233L17.8058 14.2254L17.8055 14.2257L17.8032 14.2281L17.8011 14.2304L17.801 14.2305L17.7988 14.2329L17.7966 14.2353L17.7964 14.2354L17.7944 14.2377L17.7921 14.2401L17.7918 14.2404L17.7899 14.2425L17.7877 14.2449L17.7873 14.2453L17.7855 14.2473L17.7832 14.2497L17.7828 14.2502L17.781 14.2521L17.7788 14.2545L17.7783 14.255L17.7766 14.2569L17.7743 14.2593L17.7739 14.2597L17.7721 14.2617L17.7699 14.2641L17.7695 14.2644L17.7677 14.2665L17.7654 14.2689L17.7652 14.2691L17.7632 14.2713L17.761 14.2737L17.7609 14.2737L17.7588 14.2761L17.7567 14.2783L17.7566 14.2784L17.7543 14.2808L17.7525 14.2828L17.7521 14.2832L17.7499 14.2856L17.7483 14.2873L17.7477 14.288L17.7455 14.2904L17.7442 14.2917L17.7433 14.2927L17.7411 14.2951L17.7402 14.2961L17.7389 14.2975L17.7367 14.2999L17.7362 14.3004L17.7345 14.3022L17.7323 14.3046L17.7322 14.3047L17.7301 14.307L17.7283 14.3089L17.7279 14.3093L17.7257 14.3117L17.7244 14.3131L17.7236 14.314L17.7214 14.3164L17.7205 14.3173L17.7192 14.3187L17.717 14.321L17.7167 14.3214L17.7149 14.3234L17.713 14.3254L17.7127 14.3257L17.7106 14.328L17.7093 14.3294L17.7084 14.3303L17.7063 14.3326L17.7056 14.3334L17.7041 14.3349L17.702 14.3372L17.702 14.3373L17.6999 14.3395L17.6984 14.3412L17.6978 14.3418L17.6956 14.3441L17.6948 14.345L17.6935 14.3464L17.6914 14.3486L17.6913 14.3488L17.6893 14.3509L17.6878 14.3525L17.6872 14.3532L17.6851 14.3554L17.6844 14.3562L17.6831 14.3577L17.681 14.3598L17.681 14.3599L17.6789 14.3621L17.6777 14.3634L17.6769 14.3643L17.6748 14.3665L17.6744 14.367L17.6728 14.3687L17.6712 14.3705L17.6707 14.3709L17.6687 14.3731L17.6679 14.374L17.6667 14.3753L17.6648 14.3774L17.6647 14.3775L17.6627 14.3796L17.6616 14.3808L17.6607 14.3818L17.6587 14.3839L17.6585 14.3841L17.6567 14.3861L17.6555 14.3874L17.6547 14.3882L17.6528 14.3903L17.6525 14.3906L17.6508 14.3924L17.6495 14.3938L17.6489 14.3945L17.647 14.3966L17.6466 14.397L17.645 14.3987L17.6437 14.4001L17.6431 14.4007L17.6412 14.4028L17.6408 14.4032L17.6393 14.4048L17.638 14.4062L17.6374 14.4068L17.6356 14.4089L17.6352 14.4092L17.6337 14.4109L17.6325 14.4122L17.6318 14.4129L17.63 14.4149L17.6298 14.4151L17.6282 14.4168L17.6271 14.4179L17.6263 14.4188L17.6245 14.4207L17.6245 14.4208L17.6227 14.4227L17.6219 14.4235L17.621 14.4246L17.6194 14.4263L17.6192 14.4265L17.6174 14.4284L17.6169 14.429L17.6157 14.4303L17.6144 14.4317L17.6139 14.4322L17.6122 14.434L17.612 14.4343L17.6105 14.4359L17.6096 14.4368L17.6088 14.4377L17.6072 14.4394L17.6071 14.4395L17.6054 14.4413L17.6049 14.4419L17.6038 14.4431L17.6026 14.4443L17.6021 14.4449L17.6005 14.4467L17.6004 14.4468L17.5988 14.4484L17.5982 14.4491L17.5972 14.4502L17.596 14.4515L17.5956 14.4519L17.5941 14.4536L17.5939 14.4538L17.5925 14.4553L17.5918 14.456L17.5909 14.457L17.5897 14.4583L17.5894 14.4586L17.5879 14.4603L17.5877 14.4604L17.5864 14.4619L17.5857 14.4626L17.5849 14.4635L17.5838 14.4647L17.5834 14.4651L17.5819 14.4667L17.5818 14.4668L17.5805 14.4682L17.58 14.4688L17.5791 14.4698L17.5781 14.4708L17.5776 14.4713L17.5763 14.4727L17.5762 14.4728L17.5748 14.4743L17.5745 14.4746L17.5735 14.4758L17.5728 14.4765L17.5721 14.4772L17.5711 14.4784L17.5708 14.4787L17.5695 14.4801L17.5694 14.4802L17.5682 14.4815L17.5678 14.4819L17.5669 14.4829L17.5662 14.4836L17.5656 14.4843L17.5646 14.4853L17.5643 14.4856L17.5631 14.4869L17.5631 14.487L17.5619 14.4883L17.5616 14.4886L17.5607 14.4896L17.5601 14.4902L17.5595 14.4908L17.5587 14.4917L17.5583 14.4921L17.5573 14.4932L17.5572 14.4933L17.5561 14.4945L17.5559 14.4947L17.555 14.4957L17.5546 14.4962L17.5539 14.4969L17.5533 14.4976L17.5528 14.4981L17.552 14.4989L17.5517 14.4992L17.5508 14.5003L17.5507 14.5003L17.5497 14.5014L17.5496 14.5016L17.5487 14.5025L17.5484 14.5028L17.5477 14.5035L17.5473 14.504L17.5468 14.5046L17.5461 14.5052L17.5458 14.5056L17.5451 14.5064L17.5449 14.5066L17.544 14.5075L17.544 14.5075L17.5431 14.5085L17.543 14.5086L17.5423 14.5094L17.542 14.5097L17.5414 14.5103L17.5411 14.5107L17.5406 14.5112L17.5402 14.5117L17.5398 14.512L17.5393 14.5126L17.5391 14.5129L17.5384 14.5136L17.5383 14.5137L17.5376 14.5145L17.5376 14.5145L17.5369 14.5152L17.5368 14.5153L17.5362 14.516L17.536 14.5161L17.5355 14.5167L17.5353 14.5169L17.5349 14.5174L17.5346 14.5177L17.5342 14.5181L17.5339 14.5184L17.5336 14.5187L17.5333 14.5191L17.5331 14.5193L17.5327 14.5198L17.5325 14.5199L17.5321 14.5204L17.532 14.5205L17.5315 14.521L17.5315 14.5211L17.531 14.5216L17.531 14.5216L17.5305 14.5221L17.5305 14.5221L17.5301 14.5226L17.53 14.5226L17.5296 14.523L17.5296 14.5231L17.5293 14.5234L17.5292 14.5235L17.5289 14.5238L17.5288 14.524L17.5285 14.5242L17.5284 14.5243L17.5282 14.5246L17.5281 14.5247L17.5279 14.5249L17.5278 14.525L17.5276 14.5252L17.5275 14.5253L17.5274 14.5254L17.5273 14.5256L17.5272 14.5257L17.5271 14.5258L17.527 14.5259L17.5269 14.526L17.5268 14.5261L17.5267 14.5262L17.5266 14.5263L17.5266 14.5263L17.5265 14.5264L17.5265 14.5265L17.5264 14.5265L17.5264 14.5265L17.5264 14.5266L17.5263 14.5266L17.5263 14.5266L17.5263 14.5266L17.5573 14.5555C16.6369 15.808 16.1899 17.3638 16.1899 19.1898V19.6898H16.6899H19.184H19.6651L19.6836 19.209C19.7291 18.0253 19.9153 17.1818 20.2017 16.6328L20.2027 16.6308C20.6961 15.6749 21.5778 15.1641 22.9951 15.1641C24.1765 15.1641 24.9039 15.4782 25.3183 15.9882C25.788 16.5664 26.026 17.2473 26.026 18.0549C26.026 18.6079 25.8694 19.1486 25.5397 19.6844L25.5397 19.6843L25.5358 19.6909C25.3572 19.9912 25.1171 20.2873 24.8096 20.5777L24.8095 20.5776L24.8016 20.5855L23.6815 21.6915C23.6815 21.6915 23.6815 21.6916 23.6814 21.6916C22.5879 22.7661 21.8336 23.7617 21.4782 24.6764C21.1296 25.5735 20.9678 26.7185 20.9678 28.0871V28.5871H21.4678H23.9619H24.4619V28.0871C24.4619 26.9335 24.5946 26.127 24.8186 25.62C25.0448 25.108 25.5692 24.427 26.4536 23.5702ZM23.0029 0.5C10.5765 0.5 0.50293 10.5736 0.50293 23C0.50293 35.4264 10.5765 45.5 23.0029 45.5C35.4293 45.5 45.5029 35.4264 45.5029 23C45.5029 10.5736 35.4293 0.5 23.0029 0.5ZM23.0029 3.41304C33.8205 3.41304 42.5899 12.1824 42.5899 23C42.5899 33.8176 33.8205 42.587 23.0029 42.587C12.1854 42.587 3.41597 33.8176 3.41597 23C3.41597 12.1824 12.1854 3.41304 23.0029 3.41304Z" fill="white" stroke="white"/>
</svg>
