<svg width="50" height="50" viewBox="0 0 25 25" fill="none" xmlns="http://www.w3.org/2000/svg"><path d="M12.5 0.00134277C5.61125 0.00134277 0 5.61259 0 12.5013C0 19.3901 5.61125 25.0013 12.5 25.0013C19.3888 25.0013 25 19.3901 25 12.5013C25 5.61259 19.3888 0.00134277 12.5 0.00134277ZM12.5 2.50134C18.0377 2.50134 22.5 6.96369 22.5 12.5013C22.5 18.039 18.0377 22.5013 12.5 22.5013C6.96235 22.5013 2.5 18.039 2.5 12.5013C2.5 6.96369 6.96235 2.50134 12.5 2.50134ZM11.25 6.25134V8.75134H13.75V6.25134H11.25ZM11.25 11.2513V18.7513H13.75V11.2513H11.25Z" fill="white"/></svg>
