<svg width="160" height="160" xmlns="http://www.w3.org/2000/svg" viewBox="0 0 24 24"><path d="M11.78.164a.153.153 0 00-.119.055L5.567 7.511c-.1.127-.108.155.028.156L17.8 7.635c.168-.014.169 0 .06-.147L11.872.2a.111.111 0 00-.092-.036zm1.17.65l5.5 6.683c.074.089.092.094.221.032l2.9-1.326c.19-.086.164-.1.037-.189zm-2.565.244a.82.82 0 00-.148.1L2.26 6.405l2.5 1.133c.131.043.169.045.254-.06l5.264-6.287a1.2 1.2 0 00.111-.133zm2.524 2.662a1.058 1.058 0 01.843.364 1.717 1.717 0 01.354 1.032 1.547 1.547 0 01-.221 1.031.915.915 0 01-.792.36 1.055 1.055 0 01-.843-.36 1.721 1.721 0 01-.35-1.031 1.551 1.551 0 01.222-1.032.913.913 0 01.787-.364zm-2.317.028a1.047 1.047 0 01.718.211.615.615 0 01.176.59.914.914 0 01-.176.41 3.085 3.085 0 01-.552.511l-.65.5h1.179l-.073.507H9.261l.078-.507 1.11-.866a1.132 1.132 0 00.23-.23.551.551 0 00.1-.239.341.341 0 00-.078-.3.424.424 0 00-.322-.116 1.132 1.132 0 00-.364.074 2.591 2.591 0 00-.443.2l.088-.59a3.607 3.607 0 01.479-.115 2.6 2.6 0 01.456-.041zm2.349.446a.3.3 0 00-.3.208 1.789 1.789 0 00-.051.709 1.946 1.946 0 00.143.714.357.357 0 00.332.212.306.306 0 00.3-.212 1.822 1.822 0 00.05-.714 1.918 1.918 0 00-.142-.709.354.354 0 00-.332-.208zm-6.623.373a.139.139 0 01.129.051c.04.069-.011.2-.148.41a2.245 2.245 0 01-.474.525 1.928 1.928 0 01-.594.318.457.457 0 01-.29.032c-.056-.025-.068-.089-.037-.184A1.923 1.923 0 014.577 6a1.464 1.464 0 01-.355.175c-.183.06-.293.055-.322-.014s.023-.2.152-.4a2.1 2.1 0 01.433-.488 1.6 1.6 0 01.52-.286.4.4 0 01.258-.027c.05.022.061.077.037.161a1.95 1.95 0 01.359-.309 1.662 1.662 0 01.4-.2.909.909 0 01.258-.051zm12.293.111c.109.092.211.187.3.276s.179.177.253.263a.909.909 0 01.258.442c.008.106-.063.16-.212.161a.853.853 0 01-.3-.069 4.563 4.563 0 01-.539-.276l-.59-.336.6.695-.3.005-.981-1.152h.3l1.009.575a1.644 1.644 0 00.234.115.472.472 0 00.171.037c.074 0 .109-.027.11-.078a.314.314 0 00-.1-.2 1.761 1.761 0 00-.221-.212 3.846 3.846 0 00-.332-.239h.346zm-12.7.309a.618.618 0 00-.134.027 1.057 1.057 0 00-.285.143.753.753 0 00-.2.2c-.051.077-.062.129-.032.152s.1.016.207-.019a1.05 1.05 0 00.286-.143.792.792 0 00.2-.207c.047-.073.058-.122.028-.14a.105.105 0 00-.073-.009zm-1 .35a.465.465 0 00-.111.023.849.849 0 00-.23.119.673.673 0 00-.17.171q-.066.1-.033.129c.024.02.081.014.166-.014a.832.832 0 00.231-.115.686.686 0 00.17-.175c.042-.064.056-.1.032-.125a.088.088 0 00-.06-.013zm17.076 1.179a.5.5 0 00-.124.041l-2.976 1.359c-.105.048-.1.113-.06.193l3.459 8.775-.248-10.221c-.008-.112-.01-.15-.051-.147zm-19.953.271l-.318 9.945 2.93-8.6c.043-.127.042-.134-.046-.175l-2.566-1.17zm15.927 1.29l-12.482.032c-.178 0-.171 0-.082.143l6.337 10.69c.107.164.1.158.208-.009l6.089-10.708c.053-.085.091-.145-.07-.148zm.5.281c-.012 0-.024.048-.06.115L12.269 19.26c-.067.114-.083.155.078.129l9.732-1.34c.154-.035.15-.091.1-.244l-3.674-9.327c-.024-.089-.035-.125-.046-.12zM5 8.459a.533.533 0 00-.046.12l-3.109 9.152c-.053.195-.059.268.139.3l9.3 1.345c.176.026.153-.062.11-.147L5.065 8.556c-.04-.08-.053-.1-.065-.1zm16.922.12l.019.382-.313.2.073 1.387.314-.309.023.378-.318.3-.336.216-.093-1.764-.147.092.005.111a.553.553 0 00-.2.009.627.627 0 00-.193.083.605.605 0 00-.212.212.471.471 0 00-.065.267c.005.1.034.153.088.17a.287.287 0 00.23-.064l.143-.092.018.359-.147.092a.591.591 0 00-.2.193.425.425 0 00-.056.24c.005.082.03.134.074.152a.214.214 0 00.184-.046.99.99 0 00.171-.143 1.634 1.634 0 00.17-.2l.019.4a2.492 2.492 0 01-.2.2 1.649 1.649 0 01-.2.152c-.178.114-.312.156-.4.12s-.147-.143-.157-.327a.912.912 0 01.046-.35.839.839 0 01.18-.29.207.207 0 01-.221-.06.5.5 0 01-.087-.3 1.07 1.07 0 01.128-.585 1.311 1.311 0 01.452-.456 1.128 1.128 0 01.212-.11c.014-.006.031-.009.046-.014v-.005l.958-.608zM2.3 9.325a.268.268 0 01.152.046.662.662 0 01.267.42l.009.041.018-.244.664.4-.028.336-.219-.124-.1 1.207.226.046-.023.327-.231-.042-.23-.143.124-1.538-.189-.11a2.51 2.51 0 01.019.612 1.343 1.343 0 01-.18.654.23.23 0 01-.345.069.7.7 0 01-.125-.1 1.228 1.228 0 01-.119-.134l.03-.348a1.181 1.181 0 00.111.152.468.468 0 00.1.092.126.126 0 00.18-.019.639.639 0 00.1-.313.166.166 0 01-.1.037.208.208 0 01-.111-.029.547.547 0 01-.216-.309 1.215 1.215 0 01-.055-.5.7.7 0 01.138-.424.2.2 0 01.133-.062zm.069.337a.074.074 0 00-.049.038.559.559 0 00-.051.226.86.86 0 00.009.267.223.223 0 00.092.143.066.066 0 00.1-.028.565.565 0 00.05-.225.862.862 0 00-.009-.267.212.212 0 00-.087-.139.083.083 0 00-.06-.013zm7.314.681h.654v.488h1.193v.6l-1.078 1.6H9.68v-1.697H9.3v-.5h.38zm2.266 0h1.875v.479h-.608v1.737l.626-.129v.47l-.626.128h-.659v-2.206h-.608v-.479zm-1.612.991v1.128l.76-1.128zm-4.632 2.031l.433.589-.2.134a.789.789 0 01.093.023 1.493 1.493 0 01.7.562 1.194 1.194 0 01.281.9 1.145 1.145 0 01-.558.75 1.247 1.247 0 01-1 .212 1.569 1.569 0 01-.9-.649 3.03 3.03 0 01-.221-.336 2.791 2.791 0 01-.166-.355l.368-.244a2.33 2.33 0 00.129.35 1.588 1.588 0 00.166.285.884.884 0 00.451.35.665.665 0 00.512-.064 1.166 1.166 0 01-.268-.17 1.4 1.4 0 01-.234-.254 1.159 1.159 0 01-.268-.718.632.632 0 01.3-.539.831.831 0 01.166-.083l-.3-.405.516-.341zm11.754.852l.5.387.8 1.879-.4.594-1.446-1.105-.2.294-.429-.327.2-.3-.419-.318.345-.506.415.322.626-.921zm-11.408.465a.522.522 0 00-.249.1.4.4 0 00-.2.253.391.391 0 00.092.309.431.431 0 00.272.188.451.451 0 00.322-.092.417.417 0 00.2-.253.4.4 0 00-.092-.309.435.435 0 00-.272-.188.29.29 0 00-.078 0zm11.606.2l-.4.585.958.737zM2.582 18.569l9.125 5.177c.118.072.145.046.129-.078l-.194-3.629c0-.117-.021-.165-.143-.185l-8.917-1.285zm18.866.01l-9.262 1.28c-.123.018-.1.078-.1.166l.2 3.694c.011.112.007.152.143.083zm-5.8 1.593l.677.751.53-.313.147.166-1.391.824-.225.134-1.386.824-.148-.161.53-.313-.539-.59-.5.364-.148-.161.5-.36.563-.337.682.751.3-.18.226-.133.3-.18-.534-.589-.5.363-.143-.161.5-.364.566-.336zm-6.089.111a.869.869 0 01.493.184.418.418 0 01.212.414.775.775 0 01-.373.452 1.431 1.431 0 01-.4.189l.157.119-.355.24-.313-.235.115-.078a.974.974 0 01-.534-.2 1.257 1.257 0 01-.161-.138.988.988 0 01-.12-.152l.253-.171a.777.777 0 00.092.152.667.667 0 00.125.124.552.552 0 00.322.116.715.715 0 00.355-.106.834.834 0 01-.194-.046.665.665 0 01-.166-.093.418.418 0 01-.2-.327.387.387 0 01.2-.308.784.784 0 01.488-.138zm.079.276a.459.459 0 00-.222.088.3.3 0 00-.138.156c-.01.049.016.094.074.138a.271.271 0 00.189.06.485.485 0 00.226-.092.281.281 0 00.133-.152.141.141 0 00-.069-.143.277.277 0 00-.193-.055z" fill="#fff"/></svg>
