<svg width="55" height="55" viewBox="0 0 55 55" fill="none" xmlns="http://www.w3.org/2000/svg">
<path d="M27.5 27C34.9558 27 41 20.9559 41 13.5C41 6.04416 34.9558 0 27.5 0C20.0442 0 14 6.04416 14 13.5C14 20.9559 20.0442 27 27.5 27Z" fill="white"/>
<path d="M13 55C20.1797 55 26 49.1797 26 42C26 34.8202 20.1797 29 13 29C5.82029 29 0 34.8202 0 42C0 49.1797 5.82029 55 13 55Z" fill="white"/>
<path d="M42.0001 55C49.1798 55 55 49.1798 55 42C55 34.8203 49.1798 29 42.0001 29C34.8203 29 29 34.8203 29 42C29 49.1798 34.8203 55 42.0001 55Z" fill="white"/>
</svg>
