<svg xmlns="http://www.w3.org/2000/svg" viewBox="0 0 159.1 168.6"><path d="M49.9 26.8c.1 6.9 1 11.7 2.7 15.2 1.7 3.7 4.3 6 7.3 7.8l1 .6v-1.1c0-1.9.8-3.9 1.6-6 .2-.4.3-.8.5-1.1.7-1.7 1.4-3.3 1.8-4.9 3.7-10.2 4.6-12.1 7.2-17.5.6-1.2 1.3-2.6 2.1-4.3 2.1-4.4 2.7-9.1 1.7-14.1 7.3 1.5 14.4 7 20.1 15.4 6 8.7 10.6 20.5 12.4 33.7l.2 1.4 1-1.1c3.7-4.3 6-9.1 6.7-14.7 6.2 5.9 9.3 12.9 10.5 20.6h0c1.3 7.7.6 14-2.2 18.9-2.6 4.5-6.9 7.8-13.3 9.8 1.2-2.8 1.7-5.4 1.5-8.1-.2-3-1.3-5.9-3-9.3h0c-1.5-2.8-3.3-5.3-5.8-7.4l-.9-.8-.2 1.1c-.5 3.2-1.2 6-2 8.1-.6 1.6-1.3 2.8-2.1 3.7-.1-1.8-.3-3.5-.7-5.2-.8-3.5-1.8-5.4-3-7-.3-.4-.5-.8-.8-1.1-.9-1.2-1.8-2.4-2.7-4.3-1.1-2.4-1.4-4.9-.8-7.7l.2-.8-.9.2c-4.6.7-8.9 4-12.2 8.9-3.2 4.6-5.6 10.6-6.7 17.4-1.5-2.1-2.4-4.5-2.6-7.1l-.1-1.3-1 .9c-3.9 3.5-5.9 7.7-6.6 12.3-.6 3.9-.4 7.2.8 10-10.2-1.4-17.1-6.6-21.5-14.9h0c-3.3-6.2-4.7-11.6-4.4-16.9.3-5.4 2.1-10.8 5.3-17 2.3-4.7 5-9.3 8.9-12.3z" fill="#b51e3d" stroke="#b51e3d"/><path d="M158.7 52c-.9-1.4-3.1-2-5.1-1.4l-15.4 5.1-2.2 6.8 15.4-5.1v84.8l-42.8 18.7V99.8l-7.7 6V161l-42.8-18.7v-42.1l-7.7-5.8v47.9L7.6 160.9V71.7l22.6-7.5-1.9-5.4-25.8 8.6C1 67.8 0 68.8 0 70v95.8c0 .5.2 1 .6 1.4 1.1 1.3 3.5 1.7 5.2.9L54.4 147l48.5 21.1c.1.1.2.1.3.1h.1c.5.2 1 .2 1.5.2s1-.1 1.5-.2h.1c.1 0 .2-.1.3-.1l50.3-21.9c1.2-.5 2-1.4 2-2.4V53.2c.1-.4 0-.8-.3-1.2z" fill="#ffffff"/></svg>